<?xml version="1.0" encoding="utf-8"?>
<!-- Generator: Adobe Illustrator 19.2.1, SVG Export Plug-In . SVG Version: 6.00 Build 0)  -->
<svg version="1.1" id="Layer_1" xmlns="http://www.w3.org/2000/svg" xmlns:xlink="http://www.w3.org/1999/xlink" x="0px" y="0px"
	 viewBox="0 0 185 256" style="enable-background:new 0 0 185 256;" xml:space="preserve">
<style type="text/css">
	.st0{fill:#cccccc;}
</style>
<g>

	<path class="st0" d="M95.6,41c6.6,0,13.2,0,19.8,0c2.2,0,4,0.7,4.8,2.9c1.2,3.2-0.8,6.1-3.9,6.3c-1.9,0.1-1.9,0.1-1.9,2
		c0,12.2,0,24.4,0,36.6c0,1.7,0,1.8,1.6,2.2c4.2,1.2,8.2,2.6,12.1,4.4c4.2,2,8.2,4.3,11.9,7c3.8,2.8,7.4,5.9,10.7,9.3
		c3,3.2,5.7,6.6,8.1,10.2c3.5,5.1,6.1,10.6,8.2,16.3c1.4,3.9,2.5,7.9,3.1,12c0.2,1.6,0.2,3.3,0.6,4.8c1.1,4.1,0.4,8.3,0.5,12.5
		c0,1.9-0.4,3.8-0.8,5.7c-0.8,3.6-1.5,7.2-2.5,10.8c-1,4-2.7,7.8-4.5,11.5c-2.4,4.7-5.2,9.2-8.5,13.3c-4.7,5.9-10.3,10.9-16.6,15.2
		c-4.3,2.9-8.8,5.3-13.7,7.2c-3.8,1.5-7.6,2.8-11.6,3.5c-2.9,0.5-5.9,1.2-8.8,1.4c-3.3,0.3-6.6,0.2-9.9,0.1c-1.9,0-3.8-0.2-5.8-0.4
		c-1.7-0.2-3.4-0.4-5.1-0.7c-4.3-0.8-8.5-2-12.6-3.6c-5.9-2.3-11.5-5.1-16.5-9c-3.1-2.4-6.3-4.9-9.1-7.7c-6.1-6.1-11-13.1-14.6-21
		c-2.1-4.4-3.8-9-4.8-13.8c-0.8-3.8-1.4-7.7-1.7-11.6c-0.3-3.2-0.3-6.4-0.2-9.7c0.1-3.1,0.5-6.3,1.1-9.4c0.6-3.3,1.3-6.6,2.3-9.8
		c1.3-3.9,3-7.8,4.8-11.6c2.5-5.2,5.8-9.8,9.5-14.2c2.8-3.4,5.9-6.5,9.4-9.2c3-2.3,6.1-4.6,9.4-6.6c3.7-2.3,7.6-4.2,11.7-5.5
		c1.7-0.6,3.4-1.1,5.1-1.8c0.4-0.1,0.6-0.7,0.8-1.1c0.1-0.2,0-0.6,0-0.9c0-12.2,0-24.4,0-36.6c0-1.8-0.1-2-1.9-1.9
		c-1.3,0-2.5-0.2-3.6-1c-2.7-2-2.3-6.3,0.8-7.6C74,41.2,75,41,76,41C82.5,41,89.1,41,95.6,41z M41,164.2C41,164.2,41,164.2,41,164.2
		c-2.7,0-5.3,0-8,0c-0.8,0-1.2,0.3-1.1,1.1c0.1,1.3,0.1,2.7,0.3,4c0.4,2.8,0.8,5.7,1.5,8.4c0.7,2.8,1.5,5.6,2.5,8.3
		c0.8,2.2,1.8,4.4,2.9,6.4c1.4,2.7,2.9,5.4,4.7,7.8c1.8,2.5,3.9,4.8,5.9,7.1c3.3,3.8,7.2,6.8,11.4,9.5c4.8,3.2,10,5.6,15.5,7.3
		c2.6,0.8,5.3,1.5,8,1.9c3.1,0.5,6.3,0.9,9.5,1c3.1,0.2,6.3,0.2,9.3-0.1c3.7-0.4,7.5-1.2,11.1-2.1c3.9-0.9,7.7-2.3,11.3-4.1
		c5.1-2.5,9.8-5.6,14.1-9.3c3.9-3.3,7.2-7.1,10.2-11.2c2.6-3.5,4.8-7.3,6.4-11.3c1.3-3.3,2.5-6.7,3.5-10.2c0.7-2.6,1.1-5.3,1.6-8
		c0.3-1.8,0.4-3.6,0.5-5.4c0.1-0.8-0.4-1.2-1.2-1.2c-0.4,0-0.7,0-1.1,0c-17.5,0-35,0-52.5,0c-12.2,0-24.4,0-36.5,0
		c-1.4,0-1.5-0.1-1.5-1.3c-0.2-5.8-5.5-10.1-11.8-9c-4,0.7-7.9,4.7-7.6,9.1c0.1,0.9-0.4,1.2-1.2,1.2C46.2,164.2,43.6,164.2,41,164.2
		z M111.8,120.3c-0.1,4.6,3.7,8,7.7,8c4.8,0,8.3-3.4,8.4-8.1c0.1-4.2-3.6-8-8.1-8C115.3,112.3,111.7,115.9,111.8,120.3z M98.4,98.4
		c0.4-3.1-2.9-5.7-5.7-5.7c-2.8,0-5.7,3-5.7,5.5c0,3.1,2.6,5.9,5.7,5.9C95.8,104.1,98.6,101.3,98.4,98.4z M107.5,126.2
		c-2.4-0.3-4.2,2.2-4.3,4.1c0,2.1,2,4.1,4.2,4.2c2.2,0,4.2-1.9,4.2-4.1C111.6,128,109.9,126.2,107.5,126.2z M101.7,61.2
		c1.7,0,2.9-1.3,2.9-3.1c0-1.5-1.5-2.9-3-2.9c-1.7,0-3,1.3-3,3C98.6,59.9,99.8,61.2,101.7,61.2z M100,77.6c0-1.5-1.4-3-2.9-3
		c-1.6,0-3.1,1.4-3.1,2.9c0,1.5,1.2,3.1,3.1,3.1C98.8,80.5,100,79.3,100,77.6z M103.3,86.7c1.6,0,2.9-1.4,2.9-3
		c0-1.7-1.3-2.9-2.9-2.9c-1.6,0-3,1.4-3.1,2.9C100.2,85.2,101.7,86.7,103.3,86.7z"/>

	<path class="st0" d="M117.6,181.1c5-0.5,9.4,4.3,9.4,9.4c0,5.2-4.3,9.5-9.5,9.5c-5,0-9.5-4-9.5-9.5
		C107.9,185.4,112.3,180.6,117.6,181.1z"/>
	<path class="st0" d="M65.9,200.1c3.7-0.2,6.3,2.7,6.3,6.2c0,3.5-2.8,6.2-6.3,6.2c-3.4,0-5.9-2.7-6.1-5.9
		C59.5,203,62.8,199.7,65.9,200.1z"/>
	<path class="st0" d="M92.9,181.1c2.6-0.4,4.7,2.2,4.7,4.6c-0.1,2.4-1.7,4.7-5,4.7c-2.6,0-4.6-2.1-4.6-4.8
		C88,182.9,89.9,181.1,92.9,181.1z"/>
</g>
</svg>
